<?xml version="1.0" encoding="UTF-8"?>
<!DOCTYPE svg PUBLIC "-//W3C//DTD SVG 1.1//EN" "http://www.w3.org/Graphics/SVG/1.1/DTD/svg11.dtd">
<svg xmlns="http://www.w3.org/2000/svg" version="1.1" width="500px" height="500px" style="shape-rendering:geometricPrecision; text-rendering:geometricPrecision; image-rendering:optimizeQuality; fill-rule:evenodd; clip-rule:evenodd" xmlns:xlink="http://www.w3.org/1999/xlink">
<g><path style="opacity:0.008" fill="#221f0e" d="M 308.5,131.5 C 310.898,131.259 312.898,131.926 314.5,133.5C 312.214,133.405 310.214,132.738 308.5,131.5 Z"/></g>
<g><path style="opacity:0.698" fill="#5b4c28" d="M 298.5,131.5 C 296.898,133.074 294.898,133.741 292.5,133.5C 294.102,131.926 296.102,131.259 298.5,131.5 Z"/></g>
<g><path style="opacity:0.816" fill="#c1ac6a" d="M 298.5,131.5 C 301.833,131.5 305.167,131.5 308.5,131.5C 310.214,132.738 312.214,133.405 314.5,133.5C 313.791,134.404 312.791,134.737 311.5,134.5C 310.833,134.5 310.167,134.5 309.5,134.5C 306.024,133.357 302.358,133.19 298.5,134C 295.975,134.424 293.975,135.59 292.5,137.5C 291.71,138.401 290.71,139.068 289.5,139.5C 287.507,138.528 287.174,137.195 288.5,135.5C 290.027,135.573 291.027,134.906 291.5,133.5C 291.833,133.5 292.167,133.5 292.5,133.5C 294.898,133.741 296.898,133.074 298.5,131.5 Z"/></g>
<g><path style="opacity:0.337" fill="#46421c" d="M 291.5,133.5 C 291.027,134.906 290.027,135.573 288.5,135.5C 288.973,134.094 289.973,133.427 291.5,133.5 Z"/></g>
<g><path style="opacity:0.133" fill="#362d11" d="M 309.5,134.5 C 303.531,133.994 297.865,134.994 292.5,137.5C 293.975,135.59 295.975,134.424 298.5,134C 302.358,133.19 306.024,133.357 309.5,134.5 Z"/></g>
<g><path style="opacity:0.247" fill="#3b372c" d="M 314.5,133.5 C 319.461,135.278 323.461,138.444 326.5,143C 325.5,143.667 324.5,143.667 323.5,143C 319.96,139.407 315.96,136.574 311.5,134.5C 312.791,134.737 313.791,134.404 314.5,133.5 Z"/></g>
<g><path style="opacity:0.996" fill="#796b36" d="M 288.5,135.5 C 287.174,137.195 287.507,138.528 289.5,139.5C 287.804,141.525 286.137,143.525 284.5,145.5C 284.141,143.234 284.808,141.401 286.5,140C 285.552,139.517 284.552,139.351 283.5,139.5C 284.585,137.413 286.251,136.08 288.5,135.5 Z"/></g>
<g><path style="opacity:0.133" fill="#342711" d="M 283.5,139.5 C 282.92,141.749 281.587,143.415 279.5,144.5C 280.08,142.251 281.413,140.585 283.5,139.5 Z"/></g>
<g><path style="opacity:0.969" fill="#907e3e" d="M 283.5,139.5 C 284.552,139.351 285.552,139.517 286.5,140C 284.808,141.401 284.141,143.234 284.5,145.5C 284.167,146.167 283.833,146.833 283.5,147.5C 282.094,147.973 281.427,148.973 281.5,150.5C 281.5,154.833 281.5,159.167 281.5,163.5C 280.674,158.684 280.174,153.684 280,148.5C 279.583,149.756 278.75,150.423 277.5,150.5C 277.259,148.102 277.926,146.102 279.5,144.5C 281.587,143.415 282.92,141.749 283.5,139.5 Z"/></g>
<g><path style="opacity:0.38" fill="#503c16" d="M 344.5,148.5 C 347.976,147.357 351.642,147.19 355.5,148C 357.653,148.099 359.319,148.933 360.5,150.5C 355.303,148.913 349.969,148.246 344.5,148.5 Z"/></g>
<g><path style="opacity:0.122" fill="#32250d" d="M 283.5,147.5 C 283.573,149.027 282.906,150.027 281.5,150.5C 281.427,148.973 282.094,147.973 283.5,147.5 Z"/></g>
<g><path style="opacity:0.522" fill="#4f431b" d="M 343.5,148.5 C 343.5,148.833 343.5,149.167 343.5,149.5C 340.603,150.129 337.936,151.129 335.5,152.5C 334.833,152.5 334.167,152.5 333.5,152.5C 336.335,150.215 339.668,148.882 343.5,148.5 Z"/></g>
<g><path style="opacity:1" fill="#b5973e" d="M 343.5,149.5 C 343.5,149.167 343.5,148.833 343.5,148.5C 343.833,148.5 344.167,148.5 344.5,148.5C 349.969,148.246 355.303,148.913 360.5,150.5C 362.062,150.733 363.395,151.4 364.5,152.5C 364.5,154.5 365.5,155.5 367.5,155.5C 367.5,156.167 367.5,156.833 367.5,157.5C 367.158,158.338 366.492,158.672 365.5,158.5C 364.395,157.4 363.062,156.733 361.5,156.5C 360.313,154.025 358.313,153.025 355.5,153.5C 352.713,152.523 349.713,152.19 346.5,152.5C 347.567,150.121 346.567,149.121 343.5,149.5 Z"/></g>
<g><path style="opacity:1" fill="#c4a33a" d="M 343.5,149.5 C 346.567,149.121 347.567,150.121 346.5,152.5C 342.421,153.089 338.754,154.422 335.5,156.5C 333.801,156.66 332.134,156.494 330.5,156C 332.59,155.331 334.257,154.164 335.5,152.5C 337.936,151.129 340.603,150.129 343.5,149.5 Z"/></g>
<g><path style="opacity:0.627" fill="#483016" d="M 355.5,153.5 C 358.313,153.025 360.313,154.025 361.5,156.5C 359.456,155.492 357.456,154.492 355.5,153.5 Z"/></g>
<g><path style="opacity:0.384" fill="#493a1b" d="M 364.5,152.5 C 365.833,153.167 366.833,154.167 367.5,155.5C 365.5,155.5 364.5,154.5 364.5,152.5 Z"/></g>
<g><path style="opacity:0.09" fill="#392c12" d="M 346.5,152.5 C 349.713,152.19 352.713,152.523 355.5,153.5C 347.873,153.021 340.873,154.688 334.5,158.5C 334.833,157.833 335.167,157.167 335.5,156.5C 338.754,154.422 342.421,153.089 346.5,152.5 Z"/></g>
<g><path style="opacity:0.345" fill="#3e320f" d="M 329.5,154.5 C 328.738,156.262 327.404,157.262 325.5,157.5C 326.262,155.738 327.596,154.738 329.5,154.5 Z"/></g>
<g><path style="opacity:0.259" fill="#34250b" d="M 277.5,150.5 C 276.725,155.797 276.392,161.13 276.5,166.5C 275.5,166.5 274.5,166.5 273.5,166.5C 274.881,161.153 276.215,155.819 277.5,150.5 Z"/></g>
<g><path style="opacity:0.318" fill="#33230e" d="M 361.5,156.5 C 363.062,156.733 364.395,157.4 365.5,158.5C 366.6,159.605 367.267,160.938 367.5,162.5C 365.167,160.833 363.167,158.833 361.5,156.5 Z"/></g>
<g><path style="opacity:0.325" fill="#3f3014" d="M 367.5,155.5 C 369.262,156.262 370.262,157.596 370.5,159.5C 369.5,158.833 368.5,158.167 367.5,157.5C 367.5,156.833 367.5,156.167 367.5,155.5 Z"/></g>
<g><path style="opacity:1" fill="#b79940" d="M 333.5,152.5 C 334.167,152.5 334.833,152.5 335.5,152.5C 334.257,154.164 332.59,155.331 330.5,156C 332.134,156.494 333.801,156.66 335.5,156.5C 335.167,157.167 334.833,157.833 334.5,158.5C 333.833,158.833 333.167,159.167 332.5,159.5C 330.596,159.738 329.262,160.738 328.5,162.5C 327.738,164.262 326.404,165.262 324.5,165.5C 324.904,164.244 325.571,163.077 326.5,162C 326.361,160.699 325.695,159.866 324.5,159.5C 324.833,158.833 325.167,158.167 325.5,157.5C 327.404,157.262 328.738,156.262 329.5,154.5C 330.514,153.326 331.847,152.66 333.5,152.5 Z"/></g>
<g><path style="opacity:0.039" fill="#241807" d="M 332.5,159.5 C 331.738,161.262 330.404,162.262 328.5,162.5C 329.262,160.738 330.596,159.738 332.5,159.5 Z"/></g>
<g><path style="opacity:0.161" fill="#1b1000" d="M 320.5,161.5 C 320.167,162.5 319.5,163.167 318.5,163.5C 318.5,162.167 319.167,161.5 320.5,161.5 Z"/></g>
<g><path style="opacity:0.725" fill="#55411d" d="M 367.5,162.5 C 369.741,163.3 370.741,164.966 370.5,167.5C 369.263,166.035 368.263,164.368 367.5,162.5 Z"/></g>
<g><path style="opacity:1" fill="#c39b34" d="M 324.5,159.5 C 325.695,159.866 326.361,160.699 326.5,162C 325.571,163.077 324.904,164.244 324.5,165.5C 323.5,165.833 322.833,166.5 322.5,167.5C 320.402,166.086 319.402,166.752 319.5,169.5C 317.549,169.227 316.049,169.893 315,171.5C 314.833,171 314.667,170.5 314.5,170C 318.043,166.626 321.376,163.126 324.5,159.5 Z"/></g>
<g><path style="opacity:0.031" fill="#2e1501" d="M 324.5,165.5 C 324.5,166.833 323.833,167.5 322.5,167.5C 322.833,166.5 323.5,165.833 324.5,165.5 Z"/></g>
<g><path style="opacity:0.906" fill="#554c2a" d="M 335.5,168.5 C 333.952,168.821 333.285,169.821 333.5,171.5C 331.926,169.898 331.259,167.898 331.5,165.5C 333.973,165.088 335.306,166.088 335.5,168.5 Z"/></g>
<g><path style="opacity:0.443" fill="#51411c" d="M 271.5,166.5 C 265.367,168.876 259.034,170.876 252.5,172.5C 258.365,169.324 264.699,167.324 271.5,166.5 Z"/></g>
<g><path style="opacity:0.259" fill="#402f11" d="M 335.5,168.5 C 336.906,168.973 337.573,169.973 337.5,171.5C 336.094,171.027 335.427,170.027 335.5,168.5 Z"/></g>
<g><path style="opacity:1" fill="#b99d41" d="M 281.5,163.5 C 282.103,166.041 282.103,168.374 281.5,170.5C 276.184,170.549 271.184,171.549 266.5,173.5C 263.375,175.126 260.042,176.46 256.5,177.5C 254.409,177.318 252.409,177.652 250.5,178.5C 249.818,177.757 249.151,177.091 248.5,176.5C 248.833,175.833 249.167,175.167 249.5,174.5C 251.027,174.573 252.027,173.906 252.5,172.5C 259.034,170.876 265.367,168.876 271.5,166.5C 272.167,166.5 272.833,166.5 273.5,166.5C 274.5,166.5 275.5,166.5 276.5,166.5C 276.392,161.13 276.725,155.797 277.5,150.5C 278.75,150.423 279.583,149.756 280,148.5C 280.174,153.684 280.674,158.684 281.5,163.5 Z"/></g>
<g><path style="opacity:0.192" fill="#382a0c" d="M 281.5,170.5 C 276.744,172.118 271.744,173.118 266.5,173.5C 271.184,171.549 276.184,170.549 281.5,170.5 Z"/></g>
<g><path style="opacity:1" fill="#947a30" d="M 325.5,157.5 C 325.167,158.167 324.833,158.833 324.5,159.5C 321.376,163.126 318.043,166.626 314.5,170C 314.667,170.5 314.833,171 315,171.5C 316.049,169.893 317.549,169.227 319.5,169.5C 319.402,166.752 320.402,166.086 322.5,167.5C 321.833,169.5 320.5,170.833 318.5,171.5C 316.738,172.262 315.738,173.596 315.5,175.5C 314.5,177.167 313.167,178.5 311.5,179.5C 312.449,177.263 313.116,174.929 313.5,172.5C 312.167,172.5 310.833,172.5 309.5,172.5C 311.855,168.812 314.855,165.812 318.5,163.5C 319.5,163.167 320.167,162.5 320.5,161.5C 321.585,159.413 323.251,158.08 325.5,157.5 Z"/></g>
<g><path style="opacity:0.016" fill="#281905" d="M 318.5,171.5 C 318.262,173.404 317.262,174.738 315.5,175.5C 315.738,173.596 316.738,172.262 318.5,171.5 Z"/></g>
<g><path style="opacity:0.263" fill="#382d0e" d="M 252.5,172.5 C 252.027,173.906 251.027,174.573 249.5,174.5C 249.973,173.094 250.973,172.427 252.5,172.5 Z"/></g>
<g><path style="opacity:0.047" fill="#2d1c06" d="M 337.5,171.5 C 338.906,171.973 339.573,172.973 339.5,174.5C 338.094,174.027 337.427,173.027 337.5,171.5 Z"/></g>
<g><path style="opacity:0.188" fill="#5d4613" d="M 370.5,167.5 C 372.531,170.708 372.865,174.041 371.5,177.5C 371.384,174.14 371.051,170.807 370.5,167.5 Z"/></g>
<g><path style="opacity:0.208" fill="#3f2f14" d="M 333.5,171.5 C 335.074,173.102 335.741,175.102 335.5,177.5C 334.262,175.786 333.595,173.786 333.5,171.5 Z"/></g>
<g><path style="opacity:0.957" fill="#9a8240" d="M 367.5,157.5 C 368.5,158.167 369.5,158.833 370.5,159.5C 373.038,162.245 374.538,165.578 375,169.5C 375.84,174.113 375.34,178.446 373.5,182.5C 372.094,182.973 371.427,183.973 371.5,185.5C 370.094,185.973 369.427,186.973 369.5,188.5C 368.153,189.028 366.819,189.195 365.5,189C 367.141,187.871 368.141,186.371 368.5,184.5C 371.092,182.964 372.092,180.631 371.5,177.5C 372.865,174.041 372.531,170.708 370.5,167.5C 370.741,164.966 369.741,163.3 367.5,162.5C 367.267,160.938 366.6,159.605 365.5,158.5C 366.492,158.672 367.158,158.338 367.5,157.5 Z"/></g>
<g><path style="opacity:0.424" fill="#433514" d="M 309.5,172.5 C 307.906,175.764 305.573,178.431 302.5,180.5C 304.094,177.236 306.427,174.569 309.5,172.5 Z"/></g>
<g><path style="opacity:1" fill="#907133" d="M 248.5,176.5 C 249.151,177.091 249.818,177.757 250.5,178.5C 252.409,177.652 254.409,177.318 256.5,177.5C 254.178,179.664 251.511,181.331 248.5,182.5C 248.5,180.5 248.5,178.5 248.5,176.5 Z"/></g>
<g><path style="opacity:0.886" fill="#b99d47" d="M 139.5,179.5 C 157.167,179.5 174.833,179.5 192.5,179.5C 194.292,180.309 196.292,180.809 198.5,181C 178.503,181.5 158.503,181.667 138.5,181.5C 138.833,180.833 139.167,180.167 139.5,179.5 Z"/></g>
<g><path style="opacity:0.345" fill="#443416" d="M 249.5,174.5 C 249.167,175.167 248.833,175.833 248.5,176.5C 245.214,178.451 242.214,180.785 239.5,183.5C 241.562,179.105 244.896,176.105 249.5,174.5 Z"/></g>
<g><path style="opacity:0.016" fill="#271701" d="M 311.5,179.5 C 311.573,181.027 310.906,182.027 309.5,182.5C 309.427,180.973 310.094,179.973 311.5,179.5 Z"/></g>
<g><path style="opacity:0.02" fill="#291202" d="M 207.5,181.5 C 209.553,181.402 211.22,182.069 212.5,183.5C 210.447,183.598 208.78,182.931 207.5,181.5 Z"/></g>
<g><path style="opacity:0.843" fill="#846f36" d="M 192.5,179.5 C 194.167,179.5 195.833,179.5 197.5,179.5C 200.988,179.54 204.321,180.207 207.5,181.5C 208.78,182.931 210.447,183.598 212.5,183.5C 215.45,184.308 218.117,185.642 220.5,187.5C 219.817,189.176 218.483,189.843 216.5,189.5C 215.833,189.5 215.5,189.167 215.5,188.5C 213.815,186.182 211.481,185.182 208.5,185.5C 207.01,183.72 205.01,183.054 202.5,183.5C 180.193,182.543 157.86,182.209 135.5,182.5C 135.167,182.5 134.833,182.5 134.5,182.5C 135.568,181.566 136.901,181.232 138.5,181.5C 158.503,181.667 178.503,181.5 198.5,181C 196.292,180.809 194.292,180.309 192.5,179.5 Z"/></g>
<g><path style="opacity:0.549" fill="#4d3b14" d="M 302.5,180.5 C 301.925,182.411 300.925,184.078 299.5,185.5C 298.5,186.167 297.5,186.833 296.5,187.5C 297.757,184.573 299.757,182.239 302.5,180.5 Z"/></g>
<g><path style="opacity:0.839" fill="#4d3b1d" d="M 339.5,175.5 C 341.033,177.634 341.7,180.134 341.5,183C 341.435,185.225 341.102,187.392 340.5,189.5C 341.952,190.94 342.952,192.606 343.5,194.5C 340.675,193.522 339.342,191.522 339.5,188.5C 339.5,184.167 339.5,179.833 339.5,175.5 Z"/></g>
<g><path style="opacity:0.408" fill="#4b3d1c" d="M 202.5,183.5 C 205.01,183.054 207.01,183.72 208.5,185.5C 206.302,185.125 204.302,184.458 202.5,183.5 Z"/></g>
<g><path style="opacity:1" fill="#c09e3b" d="M 248.5,176.5 C 248.5,178.5 248.5,180.5 248.5,182.5C 248.167,183.5 247.5,184.167 246.5,184.5C 243.675,185.478 242.342,187.478 242.5,190.5C 241.833,191.833 241.167,193.167 240.5,194.5C 240.757,188.934 239.424,188.267 236.5,192.5C 236.5,191.167 236.5,189.833 236.5,188.5C 238.408,187.514 239.408,185.848 239.5,183.5C 242.214,180.785 245.214,178.451 248.5,176.5 Z"/></g>
<g><path style="opacity:1" fill="#b79233" d="M 309.5,172.5 C 310.833,172.5 312.167,172.5 313.5,172.5C 313.116,174.929 312.449,177.263 311.5,179.5C 310.094,179.973 309.427,180.973 309.5,182.5C 309.167,183.5 308.5,184.167 307.5,184.5C 306.5,184.833 305.833,185.5 305.5,186.5C 304.5,187.167 303.5,187.833 302.5,188.5C 302.657,187.127 302.49,185.793 302,184.5C 301.329,185.252 300.496,185.586 299.5,185.5C 300.925,184.078 301.925,182.411 302.5,180.5C 305.573,178.431 307.906,175.764 309.5,172.5 Z"/></g>
<g><path style="opacity:1" fill="#a58531" d="M 335.5,168.5 C 335.427,170.027 336.094,171.027 337.5,171.5C 337.427,173.027 338.094,174.027 339.5,174.5C 339.5,174.833 339.5,175.167 339.5,175.5C 339.5,179.833 339.5,184.167 339.5,188.5C 337.67,192.608 336.67,192.275 336.5,187.5C 336.5,186.167 336.5,184.833 336.5,183.5C 335.659,181.621 335.325,179.621 335.5,177.5C 335.741,175.102 335.074,173.102 333.5,171.5C 333.285,169.821 333.952,168.821 335.5,168.5 Z"/></g>
<g><path style="opacity:0.129" fill="#2e2311" d="M 371.5,177.5 C 372.092,180.631 371.092,182.964 368.5,184.5C 369.656,182.176 370.656,179.843 371.5,177.5 Z"/></g>
<g><path style="opacity:0.008" fill="#190f02" d="M 373.5,182.5 C 373.573,184.027 372.906,185.027 371.5,185.5C 371.427,183.973 372.094,182.973 373.5,182.5 Z"/></g>
<g><path style="opacity:0.004" fill="#1f1602" d="M 307.5,184.5 C 307.5,185.833 306.833,186.5 305.5,186.5C 305.833,185.5 306.5,184.833 307.5,184.5 Z"/></g>
<g><path style="opacity:0.004" fill="#1e1506" d="M 371.5,185.5 C 371.573,187.027 370.906,188.027 369.5,188.5C 369.427,186.973 370.094,185.973 371.5,185.5 Z"/></g>
<g><path style="opacity:0.055" fill="#402b16" d="M 208.5,185.5 C 211.481,185.182 213.815,186.182 215.5,188.5C 212.937,187.912 210.604,186.912 208.5,185.5 Z"/></g>
<g><path style="opacity:0.753" fill="#5c4b1e" d="M 239.5,183.5 C 239.408,185.848 238.408,187.514 236.5,188.5C 236.75,186.326 237.75,184.659 239.5,183.5 Z"/></g>
<g><path style="opacity:0.718" fill="#5d4f23" d="M 246.5,184.5 C 245.66,186.853 244.326,188.853 242.5,190.5C 242.342,187.478 243.675,185.478 246.5,184.5 Z"/></g>
<g><path style="opacity:0.875" fill="#574924" d="M 220.5,187.5 C 222.389,188.604 224.055,189.937 225.5,191.5C 224.417,191.461 223.417,191.127 222.5,190.5C 221.702,190.957 221.369,191.624 221.5,192.5C 219.566,191.89 217.899,190.89 216.5,189.5C 218.483,189.843 219.817,189.176 220.5,187.5 Z"/></g>
<g><path style="opacity:0.141" fill="#281f0a" d="M 336.5,183.5 C 336.5,184.833 336.5,186.167 336.5,187.5C 335.549,188.919 335.216,190.585 335.5,192.5C 334.185,189.373 334.518,186.373 336.5,183.5 Z"/></g>
<g><path style="opacity:0.537" fill="#393322" d="M 368.5,184.5 C 368.141,186.371 367.141,187.871 365.5,189C 366.819,189.195 368.153,189.028 369.5,188.5C 364.693,192.656 359.193,195.656 353,197.5C 352.5,197.167 352,196.833 351.5,196.5C 354.53,194.204 357.863,192.371 361.5,191C 363.703,188.628 366.037,186.461 368.5,184.5 Z"/></g>
<g><path style="opacity:0.604" fill="#907e3c" d="M 225.5,191.5 C 227.167,192.5 228.5,193.833 229.5,195.5C 229.833,196.5 230.5,197.167 231.5,197.5C 232.5,197.833 233.167,198.5 233.5,199.5C 233.768,201.099 233.434,202.432 232.5,203.5C 230.856,203.19 229.856,202.19 229.5,200.5C 227.833,196.833 225.167,194.167 221.5,192.5C 221.369,191.624 221.702,190.957 222.5,190.5C 223.417,191.127 224.417,191.461 225.5,191.5 Z"/></g>
<g><path style="opacity:0.004" fill="#190c00" d="M 336.5,193.5 C 337.5,193.833 338.167,194.5 338.5,195.5C 337.167,195.5 336.5,194.833 336.5,193.5 Z"/></g>
<g><path style="opacity:0.992" fill="#a3852e" d="M 336.5,187.5 C 336.67,192.275 337.67,192.608 339.5,188.5C 339.342,191.522 340.675,193.522 343.5,194.5C 343.808,196.924 343.474,199.257 342.5,201.5C 341.702,201.043 341.369,200.376 341.5,199.5C 341.672,198.508 341.338,197.842 340.5,197.5C 340.167,196.5 339.5,195.833 338.5,195.5C 338.167,194.5 337.5,193.833 336.5,193.5C 335.833,193.5 335.5,193.167 335.5,192.5C 335.216,190.585 335.549,188.919 336.5,187.5 Z"/></g>
<g><path style="opacity:0.004" fill="#211904" d="M 229.5,195.5 C 230.833,195.5 231.5,196.167 231.5,197.5C 230.5,197.167 229.833,196.5 229.5,195.5 Z"/></g>
<g><path style="opacity:1" fill="#bf962d" d="M 302.5,188.5 C 300.281,189.828 298.948,191.828 298.5,194.5C 297.178,194.67 296.011,194.337 295,193.5C 294.5,194 294,194.5 293.5,195C 294.38,196.356 294.714,197.856 294.5,199.5C 292.901,199.768 291.568,199.434 290.5,198.5C 290.5,197.833 290.5,197.167 290.5,196.5C 292.758,193.643 294.758,190.643 296.5,187.5C 297.5,186.833 298.5,186.167 299.5,185.5C 300.496,185.586 301.329,185.252 302,184.5C 302.49,185.793 302.657,187.127 302.5,188.5 Z"/></g>
<g><path style="opacity:1" fill="#aa914d" d="M 139.5,179.5 C 139.167,180.167 138.833,180.833 138.5,181.5C 136.901,181.232 135.568,181.566 134.5,182.5C 133.515,199.423 133.182,216.423 133.5,233.5C 133.167,233.5 132.833,233.5 132.5,233.5C 132.5,215.5 132.5,197.5 132.5,179.5C 134.833,179.5 137.167,179.5 139.5,179.5 Z"/></g>
<g><path style="opacity:0.247" fill="#291f0d" d="M 221.5,192.5 C 225.167,194.167 227.833,196.833 229.5,200.5C 226.5,198.167 223.833,195.5 221.5,192.5 Z"/></g>
<g><path style="opacity:1" fill="#bf9930" d="M 240.5,194.5 C 240.194,197.385 240.527,200.052 241.5,202.5C 241.5,204.167 241.5,205.833 241.5,207.5C 241.5,208.5 241.5,209.5 241.5,210.5C 240.5,210.5 239.5,210.5 238.5,210.5C 237.043,204.599 236.376,198.599 236.5,192.5C 239.424,188.267 240.757,188.934 240.5,194.5 Z"/></g>
<g><path style="opacity:0.008" fill="#1e1400" d="M 338.5,195.5 C 339.5,195.833 340.167,196.5 340.5,197.5C 339.167,197.5 338.5,196.833 338.5,195.5 Z"/></g>
<g><path style="opacity:0.171" fill="#261701" d="M 242.5,190.5 C 241.979,194.481 241.646,198.481 241.5,202.5C 240.527,200.052 240.194,197.385 240.5,194.5C 241.167,193.167 241.833,191.833 242.5,190.5 Z"/></g>
<g><path style="opacity:0.447" fill="#513e17" d="M 296.5,187.5 C 294.758,190.643 292.758,193.643 290.5,196.5C 287.767,199.239 284.767,201.573 281.5,203.5C 286.528,198.14 291.528,192.807 296.5,187.5 Z"/></g>
<g><path style="opacity:0.122" fill="#301c07" d="M 340.5,197.5 C 341.338,197.842 341.672,198.508 341.5,199.5C 338.196,200.144 336.862,202.144 337.5,205.5C 336.387,204.054 336.22,202.387 337,200.5C 338.518,199.837 339.685,198.837 340.5,197.5 Z"/></g>
<g><path style="opacity:0.976" fill="#604c1c" d="M 236.5,188.5 C 236.5,189.833 236.5,191.167 236.5,192.5C 235.694,196.002 235.027,199.669 234.5,203.5C 235.51,206.183 236.51,208.849 237.5,211.5C 237.5,211.833 237.5,212.167 237.5,212.5C 235.583,209.669 233.917,206.669 232.5,203.5C 233.434,202.432 233.768,201.099 233.5,199.5C 234.097,195.733 235.097,192.066 236.5,188.5 Z"/></g>
<g><path style="opacity:1" fill="#846826" d="M 305.5,186.5 C 298.5,198.167 289.167,207.5 277.5,214.5C 276.391,214.557 275.391,214.89 274.5,215.5C 274.5,214.5 274.5,213.5 274.5,212.5C 276.167,212.5 277.833,212.5 279.5,212.5C 279.5,211.167 279.5,209.833 279.5,208.5C 281.144,208.286 282.644,208.62 284,209.5C 284.483,208.552 284.649,207.552 284.5,206.5C 287.926,206.65 288.259,205.484 285.5,203C 286,202.5 286.5,202 287,201.5C 288.183,202.731 289.349,202.731 290.5,201.5C 289.347,200.313 289.347,199.313 290.5,198.5C 291.568,199.434 292.901,199.768 294.5,199.5C 294.714,197.856 294.38,196.356 293.5,195C 294,194.5 294.5,194 295,193.5C 296.011,194.337 297.178,194.67 298.5,194.5C 298.948,191.828 300.281,189.828 302.5,188.5C 303.5,187.833 304.5,187.167 305.5,186.5 Z"/></g>
<g><path style="opacity:0.973" fill="#826525" d="M 343.5,194.5 C 347.016,196.837 347.35,199.503 344.5,202.5C 342.692,203.918 342.025,205.918 342.5,208.5C 342.784,210.415 342.451,212.081 341.5,213.5C 341.167,213.5 340.833,213.5 340.5,213.5C 340.788,210.134 340.954,206.8 341,203.5C 340.667,203.167 340.333,202.833 340,202.5C 339.802,204.382 339.302,206.048 338.5,207.5C 338.672,206.508 338.338,205.842 337.5,205.5C 336.862,202.144 338.196,200.144 341.5,199.5C 341.369,200.376 341.702,201.043 342.5,201.5C 343.474,199.257 343.808,196.924 343.5,194.5 Z"/></g>
<g><path style="opacity:0.012" fill="#050300" d="M 344.5,202.5 C 343.952,204.626 343.285,206.626 342.5,208.5C 342.025,205.918 342.692,203.918 344.5,202.5 Z"/></g>
<g><path style="opacity:0.994" fill="#79642c" d="M 171.5,209.5 C 171.973,210.906 172.973,211.573 174.5,211.5C 174.5,212.167 174.5,212.833 174.5,213.5C 171.435,211.301 168.101,209.634 164.5,208.5C 158.129,207.857 152.129,208.857 146.5,211.5C 150.153,207.422 154.82,205.422 160.5,205.5C 164.742,205.681 168.409,207.014 171.5,209.5 Z"/></g>
<g><path style="opacity:0.4" fill="#423419" d="M 241.5,202.5 C 242.103,205.175 243.436,207.508 245.5,209.5C 243.938,209.267 242.605,208.6 241.5,207.5C 241.5,205.833 241.5,204.167 241.5,202.5 Z"/></g>
<g><path style="opacity:0.345" fill="#483512" d="M 280.5,204.5 C 278.222,207.472 275.222,209.139 271.5,209.5C 274.299,207.597 277.299,205.931 280.5,204.5 Z"/></g>
<g><path style="opacity:0.531" fill="#63552c" d="M 134.5,182.5 C 134.833,182.5 135.167,182.5 135.5,182.5C 134.775,203.195 134.442,224.195 134.5,245.5C 134.5,258.833 134.5,272.167 134.5,285.5C 133.503,268.341 133.17,251.008 133.5,233.5C 133.182,216.423 133.515,199.423 134.5,182.5 Z"/></g>
<g><path style="opacity:0.016" fill="#211806" d="M 171.5,209.5 C 173.027,209.427 174.027,210.094 174.5,211.5C 172.973,211.573 171.973,210.906 171.5,209.5 Z"/></g>
<g><path style="opacity:1" fill="#b08e2a" d="M 290.5,196.5 C 290.5,197.167 290.5,197.833 290.5,198.5C 289.347,199.313 289.347,200.313 290.5,201.5C 289.349,202.731 288.183,202.731 287,201.5C 286.5,202 286,202.5 285.5,203C 288.259,205.484 287.926,206.65 284.5,206.5C 284.649,207.552 284.483,208.552 284,209.5C 282.644,208.62 281.144,208.286 279.5,208.5C 279.5,209.833 279.5,211.167 279.5,212.5C 277.833,212.5 276.167,212.5 274.5,212.5C 274.5,213.5 274.5,214.5 274.5,215.5C 272.973,215.427 271.973,216.094 271.5,217.5C 268.833,217.833 266.167,218.167 263.5,218.5C 265.78,217.253 268.113,215.92 270.5,214.5C 267.015,214.311 263.348,214.311 259.5,214.5C 259.5,214.167 259.5,213.833 259.5,213.5C 264.285,213.906 268.285,212.573 271.5,209.5C 275.222,209.139 278.222,207.472 280.5,204.5C 280.5,203.833 280.833,203.5 281.5,203.5C 284.767,201.573 287.767,199.239 290.5,196.5 Z"/></g>
<g><path style="opacity:0.969" fill="#a0802a" d="M 340.5,213.5 C 338.89,216.189 338.057,219.189 338,222.5C 336.871,224.141 335.371,225.141 333.5,225.5C 332.833,225.5 332.167,225.5 331.5,225.5C 331.5,224.833 331.5,224.167 331.5,223.5C 332.822,223.67 333.989,223.337 335,222.5C 335.498,219.518 335.665,216.518 335.5,213.5C 336.458,213.047 337.292,212.381 338,211.5C 337.669,209.981 337.836,208.648 338.5,207.5C 339.302,206.048 339.802,204.382 340,202.5C 340.333,202.833 340.667,203.167 341,203.5C 340.954,206.8 340.788,210.134 340.5,213.5 Z"/></g>
<g><path style="opacity:1" fill="#b1912a" d="M 236.5,192.5 C 236.376,198.599 237.043,204.599 238.5,210.5C 239.5,210.5 240.5,210.5 241.5,210.5C 241.5,209.5 241.5,208.5 241.5,207.5C 242.605,208.6 243.938,209.267 245.5,209.5C 246.5,209.833 247.167,210.5 247.5,211.5C 248.167,212.167 248.833,212.833 249.5,213.5C 250.234,214.708 250.567,216.041 250.5,217.5C 249.167,217.5 247.833,217.5 246.5,217.5C 243.333,215.75 240.333,213.75 237.5,211.5C 236.51,208.849 235.51,206.183 234.5,203.5C 235.027,199.669 235.694,196.002 236.5,192.5 Z"/></g>
<g><path style="opacity:0.204" fill="#39230b" d="M 337.5,205.5 C 338.338,205.842 338.672,206.508 338.5,207.5C 337.836,208.648 337.669,209.981 338,211.5C 337.292,212.381 336.458,213.047 335.5,213.5C 336.043,210.782 336.709,208.115 337.5,205.5 Z"/></g>
<g><path style="opacity:0.51" fill="#574111" d="M 197.5,179.5 C 195.833,179.5 194.167,179.5 192.5,179.5C 174.833,179.5 157.167,179.5 139.5,179.5C 137.167,179.5 134.833,179.5 132.5,179.5C 132.5,197.5 132.5,215.5 132.5,233.5C 132.5,251.5 132.5,269.5 132.5,287.5C 132.167,287.5 131.833,287.5 131.5,287.5C 131.5,251.167 131.5,214.833 131.5,178.5C 153.673,178.169 175.673,178.503 197.5,179.5 Z"/></g>
<g><path style="opacity:1" fill="#b89024" d="M 164.5,208.5 C 163.791,209.404 162.791,209.737 161.5,209.5C 155.831,212.797 156.165,214.797 162.5,215.5C 162.67,216.822 162.337,217.989 161.5,219C 159.58,220.122 157.58,220.956 155.5,221.5C 155.17,218.538 153.836,217.538 151.5,218.5C 150.883,216.39 151.217,214.223 152.5,212C 151.5,211.333 150.5,211.333 149.5,212C 148.491,214.172 146.824,215.338 144.5,215.5C 145.6,214.395 146.267,213.062 146.5,211.5C 152.129,208.857 158.129,207.857 164.5,208.5 Z"/></g>
<g><path style="opacity:0.337" fill="#37290e" d="M 174.5,211.5 C 176.262,212.262 177.262,213.596 177.5,215.5C 176.5,214.833 175.5,214.167 174.5,213.5C 174.5,212.833 174.5,212.167 174.5,211.5 Z"/></g>
<g><path style="opacity:0.4" fill="#423115" d="M 271.5,209.5 C 268.285,212.573 264.285,213.906 259.5,213.5C 263.473,212.398 267.473,211.065 271.5,209.5 Z"/></g>
<g><path style="opacity:0.067" fill="#1b1501" d="M 237.5,212.5 C 238.931,213.78 239.598,215.447 239.5,217.5C 238.069,216.22 237.402,214.553 237.5,212.5 Z"/></g>
<g><path style="opacity:0.371" fill="#473509" d="M 247.5,211.5 C 251.443,212.486 255.443,213.152 259.5,213.5C 259.5,213.833 259.5,214.167 259.5,214.5C 256.119,214.54 252.786,214.207 249.5,213.5C 248.833,212.833 248.167,212.167 247.5,211.5 Z"/></g>
<g><path style="opacity:0.325" fill="#483213" d="M 146.5,211.5 C 146.267,213.062 145.6,214.395 144.5,215.5C 143.833,215.833 143.167,216.167 142.5,216.5C 143.08,214.251 144.413,212.585 146.5,211.5 Z"/></g>
<g><path style="opacity:1" fill="#bd9521" d="M 151.5,218.5 C 149.952,218.821 149.285,219.821 149.5,221.5C 148.325,221.281 147.325,221.614 146.5,222.5C 147.127,223.417 147.461,224.417 147.5,225.5C 145.973,225.427 144.973,226.094 144.5,227.5C 143.351,227.209 142.684,226.376 142.5,225C 144.072,222.081 144.739,218.915 144.5,215.5C 146.824,215.338 148.491,214.172 149.5,212C 150.5,211.333 151.5,211.333 152.5,212C 151.217,214.223 150.883,216.39 151.5,218.5 Z"/></g>
<g><path style="opacity:1" fill="#b88f1b" d="M 161.5,209.5 C 164.35,212.321 167.516,213.987 171,214.5C 171.167,214.833 171.333,215.167 171.5,215.5C 170.167,216.167 168.833,216.833 167.5,217.5C 168.243,218.182 168.909,218.849 169.5,219.5C 169.158,220.338 168.492,220.672 167.5,220.5C 166.167,220.5 164.833,220.5 163.5,220.5C 163.167,220.5 162.833,220.5 162.5,220.5C 160.903,221.09 159.569,222.09 158.5,223.5C 157.056,222.019 156.389,222.352 156.5,224.5C 153.284,223.831 152.951,222.831 155.5,221.5C 157.58,220.956 159.58,220.122 161.5,219C 162.337,217.989 162.67,216.822 162.5,215.5C 156.165,214.797 155.831,212.797 161.5,209.5 Z"/></g>
<g><path style="opacity:1" fill="#ac8b30" d="M 249.5,213.5 C 252.786,214.207 256.119,214.54 259.5,214.5C 258.426,216.284 256.76,217.451 254.5,218C 256.81,218.497 259.143,218.663 261.5,218.5C 261.5,219.167 261.5,219.833 261.5,220.5C 258.5,220.5 255.5,220.5 252.5,220.5C 250.898,218.926 248.898,218.259 246.5,218.5C 246.5,218.167 246.5,217.833 246.5,217.5C 247.833,217.5 249.167,217.5 250.5,217.5C 250.567,216.041 250.234,214.708 249.5,213.5 Z"/></g>
<g><path style="opacity:1" fill="#b99223" d="M 263.5,218.5 C 262.833,218.5 262.167,218.5 261.5,218.5C 259.143,218.663 256.81,218.497 254.5,218C 256.76,217.451 258.426,216.284 259.5,214.5C 263.348,214.311 267.015,214.311 270.5,214.5C 268.113,215.92 265.78,217.253 263.5,218.5 Z"/></g>
<g><path style="opacity:0.039" fill="#272004" d="M 277.5,214.5 C 275.967,216.245 273.967,217.245 271.5,217.5C 271.973,216.094 272.973,215.427 274.5,215.5C 275.391,214.89 276.391,214.557 277.5,214.5 Z"/></g>
<g><path style="opacity:0.122" fill="#221701" d="M 246.5,217.5 C 246.5,217.833 246.5,218.167 246.5,218.5C 245.209,218.263 244.209,218.596 243.5,219.5C 242.224,218.614 242.224,217.614 243.5,216.5C 244.417,217.127 245.417,217.461 246.5,217.5 Z"/></g>
<g><path style="opacity:0.076" fill="#2e1e05" d="M 340.5,213.5 C 340.833,213.5 341.167,213.5 341.5,213.5C 339.98,216.579 339.147,219.912 339,223.5C 337.833,224.667 336.667,225.833 335.5,227C 332.081,227.248 328.747,227.748 325.5,228.5C 327.857,226.902 330.523,225.902 333.5,225.5C 335.371,225.141 336.871,224.141 338,222.5C 338.057,219.189 338.89,216.189 340.5,213.5 Z"/></g>
<g><path style="opacity:1" fill="#b79421" d="M 164.5,208.5 C 168.101,209.634 171.435,211.301 174.5,213.5C 175.5,214.167 176.5,214.833 177.5,215.5C 177.5,216.833 177.5,218.167 177.5,219.5C 176.687,220.653 175.687,220.653 174.5,219.5C 173.702,219.957 173.369,220.624 173.5,221.5C 171.801,221.473 170.467,220.806 169.5,219.5C 168.909,218.849 168.243,218.182 167.5,217.5C 168.833,216.833 170.167,216.167 171.5,215.5C 171.333,215.167 171.167,214.833 171,214.5C 167.516,213.987 164.35,212.321 161.5,209.5C 162.791,209.737 163.791,209.404 164.5,208.5 Z"/></g>
<g><path style="opacity:0.714" fill="#5a491d" d="M 271.5,217.5 C 268.495,219.277 265.162,220.277 261.5,220.5C 261.5,219.833 261.5,219.167 261.5,218.5C 262.167,218.5 262.833,218.5 263.5,218.5C 266.167,218.167 268.833,217.833 271.5,217.5 Z"/></g>
<g><path style="opacity:0.153" fill="#3c2a10" d="M 246.5,218.5 C 248.898,218.259 250.898,218.926 252.5,220.5C 250.102,220.741 248.102,220.074 246.5,218.5 Z"/></g>
<g><path style="opacity:0.243" fill="#2a1d0b" d="M 314.5,221.5 C 313.5,222.833 312.5,224.167 311.5,225.5C 311.167,225.5 310.833,225.5 310.5,225.5C 308.833,225.5 307.167,225.5 305.5,225.5C 308.779,224.901 311.779,223.568 314.5,221.5 Z"/></g>
<g><path style="opacity:1" fill="#ae8421" d="M 331.5,223.5 C 331.5,224.167 331.5,224.833 331.5,225.5C 328.315,225.02 325.481,225.686 323,227.5C 321.991,226.342 320.658,225.675 319,225.5C 310.77,226.863 310.603,225.863 318.5,222.5C 322.798,223.297 327.132,223.63 331.5,223.5 Z"/></g>
<g><path style="opacity:0.741" fill="#6f5a2e" d="M 142.5,216.5 C 140.849,222.984 141.182,229.317 143.5,235.5C 142.833,235.167 142.167,234.833 141.5,234.5C 138.619,228.329 138.952,222.329 142.5,216.5 Z"/></g>
<g><path style="opacity:1" fill="#b98f21" d="M 147.5,225.5 C 150.152,225.41 152.485,226.076 154.5,227.5C 154.442,230.664 153.776,233.664 152.5,236.5C 151.25,236.423 150.417,235.756 150,234.5C 149.623,235.942 148.79,236.942 147.5,237.5C 147.1,235.623 146.1,234.123 144.5,233C 144.833,232.5 145.167,232 145.5,231.5C 145.833,232.167 146.167,232.833 146.5,233.5C 147.428,231.665 148.594,231.332 150,232.5C 150.309,231.234 150.809,230.067 151.5,229C 149.145,227.749 146.812,227.249 144.5,227.5C 144.973,226.094 145.973,225.427 147.5,225.5 Z"/></g>
<g><path style="opacity:1" fill="#b48b1b" d="M 155.5,221.5 C 152.951,222.831 153.284,223.831 156.5,224.5C 156.715,226.179 156.048,227.179 154.5,227.5C 152.485,226.076 150.152,225.41 147.5,225.5C 147.461,224.417 147.127,223.417 146.5,222.5C 147.325,221.614 148.325,221.281 149.5,221.5C 149.285,219.821 149.952,218.821 151.5,218.5C 153.836,217.538 155.17,218.538 155.5,221.5 Z"/></g>
<g><path style="opacity:1" fill="#b1871a" d="M 162.5,220.5 C 162.414,221.496 162.748,222.329 163.5,223C 161.608,223.973 159.608,224.64 157.5,225C 158.793,225.49 160.127,225.657 161.5,225.5C 161.5,226.5 161.5,227.5 161.5,228.5C 165.31,229.246 165.31,230.246 161.5,231.5C 159.8,231.374 158.3,230.707 157,229.5C 156.5,229.833 156,230.167 155.5,230.5C 156.193,231.518 156.859,232.518 157.5,233.5C 156.761,233.369 156.094,233.536 155.5,234C 156.774,234.977 156.774,235.811 155.5,236.5C 154.5,236.5 153.5,236.5 152.5,236.5C 153.776,233.664 154.442,230.664 154.5,227.5C 156.048,227.179 156.715,226.179 156.5,224.5C 156.389,222.352 157.056,222.019 158.5,223.5C 159.569,222.09 160.903,221.09 162.5,220.5 Z"/></g>
<g><path style="opacity:1" fill="#756129" d="M 237.5,212.5 C 237.5,212.167 237.5,211.833 237.5,211.5C 240.333,213.75 243.333,215.75 246.5,217.5C 245.417,217.461 244.417,217.127 243.5,216.5C 242.224,217.614 242.224,218.614 243.5,219.5C 244.434,220.568 244.768,221.901 244.5,223.5C 243.062,228.756 242.062,234.089 241.5,239.5C 241.698,232.076 241.032,224.743 239.5,217.5C 239.598,215.447 238.931,213.78 237.5,212.5 Z"/></g>
<g><path style="opacity:0.337" fill="#58410e" d="M 305.5,225.5 C 307.167,225.5 308.833,225.5 310.5,225.5C 298.265,226.185 285.932,226.852 273.5,227.5C 274.719,225.699 276.552,224.699 279,224.5C 287.792,225.458 296.625,225.792 305.5,225.5 Z"/></g>
<g><path style="opacity:1" fill="#ad8315" d="M 162.5,220.5 C 162.833,220.5 163.167,220.5 163.5,220.5C 164.588,223.604 165.922,226.604 167.5,229.5C 166.873,230.417 166.539,231.417 166.5,232.5C 166.44,233.043 166.107,233.376 165.5,233.5C 163.974,233.006 162.641,232.339 161.5,231.5C 165.31,230.246 165.31,229.246 161.5,228.5C 161.5,227.5 161.5,226.5 161.5,225.5C 160.127,225.657 158.793,225.49 157.5,225C 159.608,224.64 161.608,223.973 163.5,223C 162.748,222.329 162.414,221.496 162.5,220.5 Z"/></g>
<g><path style="opacity:1" fill="#b48a1c" d="M 163.5,220.5 C 164.833,220.5 166.167,220.5 167.5,220.5C 167.681,223.785 168.681,226.785 170.5,229.5C 169.828,231.16 168.828,232.493 167.5,233.5C 167.5,232.833 167.167,232.5 166.5,232.5C 166.539,231.417 166.873,230.417 167.5,229.5C 165.922,226.604 164.588,223.604 163.5,220.5 Z"/></g>
<g><path style="opacity:1" fill="#b88e20" d="M 169.5,219.5 C 170.467,220.806 171.801,221.473 173.5,221.5C 172.738,223.956 172.071,226.456 171.5,229C 171.755,230.326 172.422,231.326 173.5,232C 172.167,232.333 170.833,232.667 169.5,233C 171.513,233.875 171.513,235.209 169.5,237C 170.744,237.456 171.577,236.956 172,235.5C 172.483,236.448 172.649,237.448 172.5,238.5C 171.778,238.918 171.278,239.584 171,240.5C 170.617,239.944 170.117,239.611 169.5,239.5C 168.711,239.217 168.044,238.717 167.5,238C 168.728,236.51 168.728,235.01 167.5,233.5C 168.828,232.493 169.828,231.16 170.5,229.5C 168.681,226.785 167.681,223.785 167.5,220.5C 168.492,220.672 169.158,220.338 169.5,219.5 Z"/></g>
<g><path style="opacity:1" fill="#b2881b" d="M 177.5,219.5 C 178.338,219.842 178.672,220.508 178.5,221.5C 178.665,224.518 178.498,227.518 178,230.5C 176.293,232.909 175.46,235.575 175.5,238.5C 174.5,238.5 173.5,238.5 172.5,238.5C 172.649,237.448 172.483,236.448 172,235.5C 171.577,236.956 170.744,237.456 169.5,237C 171.513,235.209 171.513,233.875 169.5,233C 170.833,232.667 172.167,232.333 173.5,232C 172.422,231.326 171.755,230.326 171.5,229C 172.071,226.456 172.738,223.956 173.5,221.5C 173.369,220.624 173.702,219.957 174.5,219.5C 175.687,220.653 176.687,220.653 177.5,219.5 Z"/></g>
<g><path style="opacity:0.29" fill="#503e1b" d="M 177.5,215.5 C 178.558,216.6 179.392,217.934 180,219.5C 180.814,224.02 180.647,228.354 179.5,232.5C 179.815,228.629 179.482,224.962 178.5,221.5C 178.672,220.508 178.338,219.842 177.5,219.5C 177.5,218.167 177.5,216.833 177.5,215.5 Z"/></g>
<g><path style="opacity:0.925" fill="#a08544" d="M 310.5,225.5 C 310.833,225.5 311.167,225.5 311.5,225.5C 300.036,227.159 288.369,228.159 276.5,228.5C 275.833,228.5 275.5,228.833 275.5,229.5C 274.167,229.5 273.5,228.833 273.5,227.5C 285.932,226.852 298.265,226.185 310.5,225.5 Z"/></g>
<g><path style="opacity:0.98" fill="#7d652b" d="M 335.5,213.5 C 335.665,216.518 335.498,219.518 335,222.5C 333.989,223.337 332.822,223.67 331.5,223.5C 327.132,223.63 322.798,223.297 318.5,222.5C 310.603,225.863 310.77,226.863 319,225.5C 320.658,225.675 321.991,226.342 323,227.5C 325.481,225.686 328.315,225.02 331.5,225.5C 332.167,225.5 332.833,225.5 333.5,225.5C 330.523,225.902 327.857,226.902 325.5,228.5C 324.115,229.574 322.949,230.907 322,232.5C 321.517,231.552 321.351,230.552 321.5,229.5C 306.676,228.504 291.676,228.171 276.5,228.5C 288.369,228.159 300.036,227.159 311.5,225.5C 312.5,224.167 313.5,222.833 314.5,221.5C 320.738,221.095 327.071,221.095 333.5,221.5C 333.294,218.505 333.96,215.838 335.5,213.5 Z"/></g>
<g><path style="opacity:1" fill="#b38a22" d="M 144.5,215.5 C 144.739,218.915 144.072,222.081 142.5,225C 142.684,226.376 143.351,227.209 144.5,227.5C 146.812,227.249 149.145,227.749 151.5,229C 150.809,230.067 150.309,231.234 150,232.5C 148.594,231.332 147.428,231.665 146.5,233.5C 146.167,232.833 145.833,232.167 145.5,231.5C 145.167,232 144.833,232.5 144.5,233C 146.1,234.123 147.1,235.623 147.5,237.5C 146.395,236.4 145.062,235.733 143.5,235.5C 141.182,229.317 140.849,222.984 142.5,216.5C 143.167,216.167 143.833,215.833 144.5,215.5 Z"/></g>
<g><path style="opacity:0.039" fill="#150000" d="M 276.5,228.5 C 291.676,228.171 306.676,228.504 321.5,229.5C 321.167,229.5 320.833,229.5 320.5,229.5C 305.422,229.184 290.422,229.517 275.5,230.5C 275.5,230.167 275.5,229.833 275.5,229.5C 275.5,228.833 275.833,228.5 276.5,228.5 Z"/></g>
<g><path style="opacity:1" fill="#b2871a" d="M 161.5,231.5 C 162.641,232.339 163.974,233.006 165.5,233.5C 166.107,233.376 166.44,233.043 166.5,232.5C 167.167,232.5 167.5,232.833 167.5,233.5C 168.728,235.01 168.728,236.51 167.5,238C 168.044,238.717 168.711,239.217 169.5,239.5C 169.719,240.675 169.386,241.675 168.5,242.5C 167.5,241.167 166.5,239.833 165.5,238.5C 163.219,239.262 161.886,238.262 161.5,235.5C 160.817,233.824 159.483,233.157 157.5,233.5C 156.859,232.518 156.193,231.518 155.5,230.5C 156,230.167 156.5,229.833 157,229.5C 158.3,230.707 159.8,231.374 161.5,231.5 Z"/></g>
<g><path style="opacity:0.984" fill="#473418" d="M 325.5,228.5 C 324.528,231.437 323.195,234.103 321.5,236.5C 321.771,234.62 321.104,233.287 319.5,232.5C 319.557,231.391 319.89,230.391 320.5,229.5C 320.833,229.5 321.167,229.5 321.5,229.5C 321.351,230.552 321.517,231.552 322,232.5C 322.949,230.907 324.115,229.574 325.5,228.5 Z"/></g>
<g><path style="opacity:0.906" fill="#605228" d="M 273.5,227.5 C 273.5,228.833 274.167,229.5 275.5,229.5C 275.5,229.833 275.5,230.167 275.5,230.5C 274.403,233.686 273.07,236.686 271.5,239.5C 271.843,237.517 271.176,236.183 269.5,235.5C 269.896,232.279 271.229,229.612 273.5,227.5 Z"/></g>
<g><path style="opacity:0.188" fill="#33290e" d="M 179.5,233.5 C 179.573,235.027 178.906,236.027 177.5,236.5C 177.427,234.973 178.094,233.973 179.5,233.5 Z"/></g>
<g><path style="opacity:0.341" fill="#3b2c08" d="M 244.5,224.5 C 246.446,230.259 246.446,235.925 244.5,241.5C 244.5,235.833 244.5,230.167 244.5,224.5 Z"/></g>
<g><path style="opacity:0.043" fill="#2f1d08" d="M 141.5,234.5 C 142.167,234.833 142.833,235.167 143.5,235.5C 143.5,236.167 143.5,236.833 143.5,237.5C 142.094,237.027 141.427,236.027 141.5,234.5 Z"/></g>
<g><path style="opacity:1" fill="#ad8016" d="M 157.5,233.5 C 159.483,233.157 160.817,233.824 161.5,235.5C 160.732,236.263 160.232,237.263 160,238.5C 159.234,234.731 158.401,234.898 157.5,239C 160.337,240.585 163.004,242.419 165.5,244.5C 162.833,244.5 160.167,244.5 157.5,244.5C 155.533,242.511 153.2,241.011 150.5,240C 152.973,239.78 154.64,238.614 155.5,236.5C 156.774,235.811 156.774,234.977 155.5,234C 156.094,233.536 156.761,233.369 157.5,233.5 Z"/></g>
<g><path style="opacity:1" fill="#aa8220" d="M 152.5,236.5 C 153.5,236.5 154.5,236.5 155.5,236.5C 154.64,238.614 152.973,239.78 150.5,240C 153.2,241.011 155.533,242.511 157.5,244.5C 154.5,243.833 151.5,243.167 148.5,242.5C 147.738,240.738 146.404,239.738 144.5,239.5C 144.167,238.833 143.833,238.167 143.5,237.5C 143.5,236.833 143.5,236.167 143.5,235.5C 145.062,235.733 146.395,236.4 147.5,237.5C 148.79,236.942 149.623,235.942 150,234.5C 150.417,235.756 151.25,236.423 152.5,236.5 Z"/></g>
<g><path style="opacity:0.039" fill="#221404" d="M 269.5,235.5 C 269.771,237.38 269.104,238.713 267.5,239.5C 267.229,237.62 267.896,236.287 269.5,235.5 Z"/></g>
<g><path style="opacity:0.947" fill="#846e36" d="M 269.5,235.5 C 271.176,236.183 271.843,237.517 271.5,239.5C 271.672,240.492 271.338,241.158 270.5,241.5C 268.821,241.715 267.821,241.048 267.5,239.5C 269.104,238.713 269.771,237.38 269.5,235.5 Z"/></g>
<g><path style="opacity:0.992" fill="#806a2a" d="M 319.5,232.5 C 321.104,233.287 321.771,234.62 321.5,236.5C 321.443,237.609 321.11,238.609 320.5,239.5C 319.325,239.719 318.325,239.386 317.5,238.5C 319.086,236.827 319.753,234.827 319.5,232.5 Z"/></g>
<g><path style="opacity:1" fill="#a78321" d="M 178.5,221.5 C 179.482,224.962 179.815,228.629 179.5,232.5C 179.5,232.833 179.5,233.167 179.5,233.5C 178.094,233.973 177.427,234.973 177.5,236.5C 177.573,238.027 176.906,239.027 175.5,239.5C 174.167,240.167 173.167,241.167 172.5,242.5C 170.409,243.865 168.076,244.532 165.5,244.5C 163.004,242.419 160.337,240.585 157.5,239C 158.401,234.898 159.234,234.731 160,238.5C 160.232,237.263 160.732,236.263 161.5,235.5C 161.886,238.262 163.219,239.262 165.5,238.5C 166.5,239.833 167.5,241.167 168.5,242.5C 169.386,241.675 169.719,240.675 169.5,239.5C 170.117,239.611 170.617,239.944 171,240.5C 171.278,239.584 171.778,238.918 172.5,238.5C 173.5,238.5 174.5,238.5 175.5,238.5C 175.46,235.575 176.293,232.909 178,230.5C 178.498,227.518 178.665,224.518 178.5,221.5 Z"/></g>
<g><path style="opacity:0.322" fill="#352a14" d="M 144.5,239.5 C 146.404,239.738 147.738,240.738 148.5,242.5C 146.596,242.262 145.262,241.262 144.5,239.5 Z"/></g>
<g><path style="opacity:0.937" fill="#4b3c1a" d="M 319.5,232.5 C 319.753,234.827 319.086,236.827 317.5,238.5C 318.325,239.386 319.325,239.719 320.5,239.5C 319.492,241.544 318.492,243.544 317.5,245.5C 317.66,243.801 317.494,242.134 317,240.5C 316.617,241.056 316.117,241.389 315.5,241.5C 316.083,238.053 317.416,235.053 319.5,232.5 Z"/></g>
<g><path style="opacity:0.008" fill="#140d00" d="M 175.5,239.5 C 175.5,241.5 174.5,242.5 172.5,242.5C 173.167,241.167 174.167,240.167 175.5,239.5 Z"/></g>
<g><path style="opacity:0.949" fill="#9d8440" d="M 244.5,223.5 C 244.5,223.833 244.5,224.167 244.5,224.5C 244.5,230.167 244.5,235.833 244.5,241.5C 244.5,242.167 244.5,242.833 244.5,243.5C 241.929,247.518 240.929,246.851 241.5,241.5C 241.5,240.833 241.5,240.167 241.5,239.5C 242.062,234.089 243.062,228.756 244.5,223.5 Z"/></g>
<g><path style="opacity:0.98" fill="#624d22" d="M 267.5,239.5 C 267.821,241.048 268.821,241.715 270.5,241.5C 268.674,246.484 266.341,251.151 263.5,255.5C 263.196,253.204 262.196,252.871 260.5,254.5C 262.05,249.07 264.384,244.07 267.5,239.5 Z"/></g>
<g><path style="opacity:0.18" fill="#221302" d="M 317.5,245.5 C 317.008,247.819 316.008,249.819 314.5,251.5C 314.461,248.911 315.461,246.911 317.5,245.5 Z"/></g>
<g><path style="opacity:0.973" fill="#735a25" d="M 317.5,245.5 C 315.461,246.911 314.461,248.911 314.5,251.5C 314.672,252.492 314.338,253.158 313.5,253.5C 312.326,254.514 311.66,255.847 311.5,257.5C 311.5,257.833 311.5,258.167 311.5,258.5C 309.896,259.287 309.229,260.62 309.5,262.5C 308.542,262.953 307.708,263.619 307,264.5C 307.158,261.498 307.658,258.498 308.5,255.5C 310.326,250.516 312.659,245.849 315.5,241.5C 316.117,241.389 316.617,241.056 317,240.5C 317.494,242.134 317.66,243.801 317.5,245.5 Z"/></g>
<g><path style="opacity:0.961" fill="#5a4721" d="M 241.5,241.5 C 240.929,246.851 241.929,247.518 244.5,243.5C 243.983,247.222 243.15,250.888 242,254.5C 239.953,258.85 237.453,262.85 234.5,266.5C 236.369,262.208 235.702,261.208 232.5,263.5C 234.153,260.193 235.82,256.86 237.5,253.5C 239.104,252.713 239.771,251.38 239.5,249.5C 239.565,246.572 240.232,243.905 241.5,241.5 Z"/></g>
<g><path style="opacity:0.796" fill="#715a24" d="M 148.5,242.5 C 151.5,243.167 154.5,243.833 157.5,244.5C 160.167,244.5 162.833,244.5 165.5,244.5C 168.076,244.532 170.409,243.865 172.5,242.5C 173.787,245.406 174.787,248.406 175.5,251.5C 175.631,252.376 175.298,253.043 174.5,253.5C 173.735,252.388 172.735,251.721 171.5,251.5C 170.883,249.32 169.883,247.32 168.5,245.5C 163.554,246.614 158.554,246.781 153.5,246C 151.416,245.303 149.749,244.136 148.5,242.5 Z"/></g>
<g><path style="opacity:0.039" fill="#180700" d="M 239.5,249.5 C 239.771,251.38 239.104,252.713 237.5,253.5C 237.66,251.847 238.326,250.514 239.5,249.5 Z"/></g>
<g><path style="opacity:0.945" fill="#4d3a1d" d="M 171.5,251.5 C 172.735,251.721 173.735,252.388 174.5,253.5C 175.298,253.043 175.631,252.376 175.5,251.5C 177.771,253.612 179.104,256.279 179.5,259.5C 178.15,258.517 177.15,257.184 176.5,255.5C 175.566,257.095 175.566,258.761 176.5,260.5C 174.61,257.728 172.943,254.728 171.5,251.5 Z"/></g>
<g><path style="opacity:0.837" fill="#695624" d="M 263.5,255.5 C 262.958,258.912 261.625,261.912 259.5,264.5C 257.824,263.817 257.157,262.483 257.5,260.5C 257.992,258.181 258.992,256.181 260.5,254.5C 262.196,252.871 263.196,253.204 263.5,255.5 Z"/></g>
<g><path style="opacity:0.063" fill="#241200" d="M 313.5,253.5 C 313.771,255.38 313.104,256.713 311.5,257.5C 311.66,255.847 312.326,254.514 313.5,253.5 Z"/></g>
<g><path style="opacity:0.078" fill="#130800" d="M 311.5,258.5 C 311.34,260.153 310.674,261.486 309.5,262.5C 309.229,260.62 309.896,259.287 311.5,258.5 Z"/></g>
<g><path style="opacity:0.933" fill="#6d5528" d="M 179.5,259.5 C 181.2,261.9 182.533,264.566 183.5,267.5C 183.321,269.954 183.987,272.121 185.5,274C 185.361,275.301 184.695,276.134 183.5,276.5C 183.5,276.167 183.5,275.833 183.5,275.5C 183.34,273.847 182.674,272.514 181.5,271.5C 179.269,268.164 177.603,264.497 176.5,260.5C 175.566,258.761 175.566,257.095 176.5,255.5C 177.15,257.184 178.15,258.517 179.5,259.5 Z"/></g>
<g><path style="opacity:0.937" fill="#867133" d="M 234.5,266.5 C 233.094,266.973 232.427,267.973 232.5,269.5C 231.325,269.719 230.325,269.386 229.5,268.5C 230.952,267.06 231.952,265.394 232.5,263.5C 235.702,261.208 236.369,262.208 234.5,266.5 Z"/></g>
<g><path style="opacity:0.949" fill="#463516" d="M 308.5,255.5 C 307.658,258.498 307.158,261.498 307,264.5C 307.708,263.619 308.542,262.953 309.5,262.5C 308.674,265.485 307.341,268.151 305.5,270.5C 305.719,269.325 305.386,268.325 304.5,267.5C 302.812,270.221 301.145,272.888 299.5,275.5C 301.983,268.538 304.983,261.872 308.5,255.5 Z"/></g>
<g><path style="opacity:0.239" fill="#312a11" d="M 232.5,263.5 C 231.952,265.394 230.952,267.06 229.5,268.5C 230.325,269.386 231.325,269.719 232.5,269.5C 231.5,271.167 230.167,272.5 228.5,273.5C 229.765,270.437 228.765,269.77 225.5,271.5C 227.094,268.236 229.427,265.569 232.5,263.5 Z"/></g>
<g><path style="opacity:0.004" fill="#130a00" d="M 234.5,266.5 C 234.573,268.027 233.906,269.027 232.5,269.5C 232.427,267.973 233.094,266.973 234.5,266.5 Z"/></g>
<g><path style="opacity:0.839" fill="#5d4a1f" d="M 257.5,260.5 C 257.157,262.483 257.824,263.817 259.5,264.5C 257.211,270.381 254.544,276.047 251.5,281.5C 251.167,281.5 250.833,281.5 250.5,281.5C 250.44,280.957 250.107,280.624 249.5,280.5C 248.866,282.772 247.532,284.439 245.5,285.5C 249.263,276.976 253.263,268.642 257.5,260.5 Z"/></g>
<g><path style="opacity:0.035" fill="#1a0a00" d="M 181.5,271.5 C 182.674,272.514 183.34,273.847 183.5,275.5C 181.896,274.713 181.229,273.38 181.5,271.5 Z"/></g>
<g><path style="opacity:0.98" fill="#6f5e2b" d="M 228.5,273.5 C 227.421,275.543 225.754,276.876 223.5,277.5C 222.624,277.631 221.957,277.298 221.5,276.5C 222.857,274.814 224.19,273.148 225.5,271.5C 228.765,269.77 229.765,270.437 228.5,273.5 Z"/></g>
<g><path style="opacity:0.961" fill="#644f23" d="M 305.5,270.5 C 304.284,275.262 302.284,279.595 299.5,283.5C 297.824,282.817 297.157,281.483 297.5,279.5C 297.229,277.62 297.896,276.287 299.5,275.5C 301.145,272.888 302.812,270.221 304.5,267.5C 305.386,268.325 305.719,269.325 305.5,270.5 Z"/></g>
<g><path style="opacity:0.969" fill="#4c3b1a" d="M 225.5,271.5 C 224.19,273.148 222.857,274.814 221.5,276.5C 221.957,277.298 222.624,277.631 223.5,277.5C 221.795,279.192 219.795,280.525 217.5,281.5C 217.715,279.821 217.048,278.821 215.5,278.5C 218.825,276.169 222.158,273.836 225.5,271.5 Z"/></g>
<g><path style="opacity:0.957" fill="#6c5a23" d="M 215.5,278.5 C 217.048,278.821 217.715,279.821 217.5,281.5C 216.18,282.942 214.514,283.608 212.5,283.5C 211.448,283.649 210.448,283.483 209.5,283C 211.319,282.26 212.652,281.093 213.5,279.5C 213.842,278.662 214.508,278.328 215.5,278.5 Z"/></g>
<g><path style="opacity:0.945" fill="#5a4620" d="M 183.5,267.5 C 185.87,271.586 187.87,275.919 189.5,280.5C 188.094,280.973 187.427,281.973 187.5,283.5C 185.801,281.434 184.468,279.1 183.5,276.5C 184.695,276.134 185.361,275.301 185.5,274C 183.987,272.121 183.321,269.954 183.5,267.5 Z"/></g>
<g><path style="opacity:0.894" fill="#47371a" d="M 213.5,279.5 C 212.652,281.093 211.319,282.26 209.5,283C 210.448,283.483 211.448,283.649 212.5,283.5C 211.486,284.674 210.153,285.34 208.5,285.5C 208.209,284.351 207.376,283.684 206,283.5C 203.538,284.159 201.038,284.493 198.5,284.5C 203.443,282.966 208.443,281.299 213.5,279.5 Z"/></g>
<g><path style="opacity:0.824" fill="#3a2d11" d="M 189.5,280.5 C 190.829,283.48 193.163,284.813 196.5,284.5C 196.5,284.833 196.5,285.167 196.5,285.5C 194.473,285.662 192.473,285.495 190.5,285C 189.62,283.644 189.286,282.144 189.5,280.5 Z"/></g>
<g><path style="opacity:0.933" fill="#6c5526" d="M 208.5,285.5 C 205.37,287.023 202.037,287.689 198.5,287.5C 198.918,286.778 199.584,286.278 200.5,286C 199.207,285.51 197.873,285.343 196.5,285.5C 196.5,285.167 196.5,284.833 196.5,284.5C 197.167,284.5 197.833,284.5 198.5,284.5C 201.038,284.493 203.538,284.159 206,283.5C 207.376,283.684 208.209,284.351 208.5,285.5 Z"/></g>
<g><path style="opacity:0.047" fill="#211104" d="M 250.5,281.5 C 250.833,281.5 251.167,281.5 251.5,281.5C 251.771,283.38 251.104,284.713 249.5,285.5C 249.833,284.167 250.167,282.833 250.5,281.5 Z"/></g>
<g><path style="opacity:0.984" fill="#473319" d="M 297.5,279.5 C 297.157,281.483 297.824,282.817 299.5,283.5C 299.008,285.819 298.008,287.819 296.5,289.5C 296.657,288.127 296.49,286.793 296,285.5C 294.758,287.859 293.258,289.859 291.5,291.5C 293.008,287.151 295.008,283.151 297.5,279.5 Z"/></g>
<g><path style="opacity:0.812" fill="#927331" d="M 132.5,233.5 C 132.833,233.5 133.167,233.5 133.5,233.5C 133.17,251.008 133.503,268.341 134.5,285.5C 145.52,285.168 156.52,285.501 167.5,286.5C 155.852,287.499 144.186,287.832 132.5,287.5C 132.5,269.5 132.5,251.5 132.5,233.5 Z"/></g>
<g><path style="opacity:0.865" fill="#92732d" d="M 189.5,280.5 C 189.286,282.144 189.62,283.644 190.5,285C 192.473,285.495 194.473,285.662 196.5,285.5C 197.873,285.343 199.207,285.51 200.5,286C 199.584,286.278 198.918,286.778 198.5,287.5C 194.25,288.081 190.584,287.081 187.5,284.5C 187.5,284.167 187.5,283.833 187.5,283.5C 187.427,281.973 188.094,280.973 189.5,280.5 Z"/></g>
<g><path style="opacity:0.24" fill="#2c210b" d="M 134.5,245.5 C 135.495,258.323 135.829,271.323 135.5,284.5C 146.5,284.5 157.5,284.5 168.5,284.5C 168.5,285.833 168.5,287.167 168.5,288.5C 155.989,288.829 143.655,288.495 131.5,287.5C 131.833,287.5 132.167,287.5 132.5,287.5C 144.186,287.832 155.852,287.499 167.5,286.5C 156.52,285.501 145.52,285.168 134.5,285.5C 134.5,272.167 134.5,258.833 134.5,245.5 Z"/></g>
<g><path style="opacity:0.055" fill="#1d0f02" d="M 249.5,285.5 C 247.912,289.346 246.912,293.346 246.5,297.5C 245.046,293.02 246.046,289.02 249.5,285.5 Z"/></g>
<g><path style="opacity:0.843" fill="#4f3b1a" d="M 187.5,284.5 C 190.584,287.081 194.25,288.081 198.5,287.5C 197.282,288.161 195.949,288.828 194.5,289.5C 195.127,290.417 195.461,291.417 195.5,292.5C 194.25,292.423 193.417,291.756 193,290.5C 192.506,292.134 192.34,293.801 192.5,295.5C 190.597,292.021 188.93,288.354 187.5,284.5 Z"/></g>
<g><path style="opacity:0.816" fill="#5a4a20" d="M 245.5,286.5 C 245.708,290.085 244.375,292.751 241.5,294.5C 242.326,291.515 243.659,288.849 245.5,286.5 Z"/></g>
<g><path style="opacity:0.067" fill="#241701" d="M 296.5,289.5 C 296.771,291.38 296.104,292.713 294.5,293.5C 294.66,291.847 295.326,290.514 296.5,289.5 Z"/></g>
<g><path style="opacity:0.941" fill="#816c2b" d="M 195.5,292.5 C 195.5,292.833 195.5,293.167 195.5,293.5C 195.357,295.262 195.691,296.929 196.5,298.5C 196.333,298.833 196.167,299.167 196,299.5C 195.292,298.619 194.458,297.953 193.5,297.5C 193.167,296.833 192.833,296.167 192.5,295.5C 192.34,293.801 192.506,292.134 193,290.5C 193.417,291.756 194.25,292.423 195.5,292.5 Z"/></g>
<g><path style="opacity:0.778" fill="#8b6e2f" d="M 250.5,281.5 C 250.167,282.833 249.833,284.167 249.5,285.5C 246.046,289.02 245.046,293.02 246.5,297.5C 246.12,299.698 246.787,301.365 248.5,302.5C 247.791,303.404 246.791,303.737 245.5,303.5C 245.205,301.577 244.372,299.91 243,298.5C 242.536,299.094 242.369,299.761 242.5,300.5C 239.929,304.518 238.929,303.851 239.5,298.5C 239.66,296.847 240.326,295.514 241.5,294.5C 244.375,292.751 245.708,290.085 245.5,286.5C 245.5,286.167 245.5,285.833 245.5,285.5C 247.532,284.439 248.866,282.772 249.5,280.5C 250.107,280.624 250.44,280.957 250.5,281.5 Z"/></g>
<g><path style="opacity:0.992" fill="#7a6226" d="M 296.5,289.5 C 295.326,290.514 294.66,291.847 294.5,293.5C 293.579,294.981 292.412,296.314 291,297.5C 290.5,297.333 290,297.167 289.5,297C 290.252,296.329 290.586,295.496 290.5,294.5C 290.557,293.391 290.89,292.391 291.5,291.5C 293.258,289.859 294.758,287.859 296,285.5C 296.49,286.793 296.657,288.127 296.5,289.5 Z"/></g>
<g><path style="opacity:0.965" fill="#4a3b18" d="M 195.5,293.5 C 197.341,295.849 198.674,298.515 199.5,301.5C 197.824,302.183 197.157,303.517 197.5,305.5C 195.659,303.151 194.326,300.485 193.5,297.5C 194.458,297.953 195.292,298.619 196,299.5C 196.167,299.167 196.333,298.833 196.5,298.5C 195.691,296.929 195.357,295.262 195.5,293.5 Z"/></g>
<g><path style="opacity:0.733" fill="#2b220e" d="M 246.5,297.5 C 247.931,298.78 248.598,300.447 248.5,302.5C 246.787,301.365 246.12,299.698 246.5,297.5 Z"/></g>
<g><path style="opacity:0.004" fill="#190c00" d="M 245.5,303.5 C 244.272,302.694 243.272,301.694 242.5,300.5C 242.369,299.761 242.536,299.094 243,298.5C 244.372,299.91 245.205,301.577 245.5,303.5 Z"/></g>
<g><path style="opacity:0.792" fill="#463418" d="M 294.5,293.5 C 292.956,298.919 290.622,303.919 287.5,308.5C 287.657,307.127 287.49,305.793 287,304.5C 285.951,307.187 284.451,309.52 282.5,311.5C 283.727,307.382 285.227,303.382 287,299.5C 287.902,297.569 289.069,295.903 290.5,294.5C 290.586,295.496 290.252,296.329 289.5,297C 290,297.167 290.5,297.333 291,297.5C 292.412,296.314 293.579,294.981 294.5,293.5 Z"/></g>
<g><path style="opacity:0.937" fill="#7f642d" d="M 199.5,301.5 C 199.5,301.833 199.5,302.167 199.5,302.5C 199.427,304.027 200.094,305.027 201.5,305.5C 201.5,305.833 201.5,306.167 201.5,306.5C 202.323,308.455 202.49,310.455 202,312.5C 201.617,311.944 201.117,311.611 200.5,311.5C 200.34,309.847 199.674,308.514 198.5,307.5C 197.662,307.158 197.328,306.492 197.5,305.5C 197.157,303.517 197.824,302.183 199.5,301.5 Z"/></g>
<g><path style="opacity:0.984" fill="#3d2c16" d="M 239.5,298.5 C 238.929,303.851 239.929,304.518 242.5,300.5C 241.912,303.063 240.912,305.396 239.5,307.5C 239.598,304.752 238.598,304.086 236.5,305.5C 236.935,302.843 237.935,300.509 239.5,298.5 Z"/></g>
<g><path style="opacity:0.071" fill="#2c1709" d="M 199.5,302.5 C 200.906,302.973 201.573,303.973 201.5,305.5C 200.094,305.027 199.427,304.027 199.5,302.5 Z"/></g>
<g><path style="opacity:0.969" fill="#83672f" d="M 239.5,307.5 C 239.167,308.167 238.833,308.833 238.5,309.5C 236.824,308.817 236.157,307.483 236.5,305.5C 238.598,304.086 239.598,304.752 239.5,307.5 Z"/></g>
<g><path style="opacity:0.059" fill="#1c1602" d="M 198.5,307.5 C 199.674,308.514 200.34,309.847 200.5,311.5C 198.896,310.713 198.229,309.38 198.5,307.5 Z"/></g>
<g><path style="opacity:0.773" fill="#5d4820" d="M 248.5,302.5 C 251.008,306.182 253.008,310.182 254.5,314.5C 254.025,317.313 255.025,319.313 257.5,320.5C 260.037,324.91 262.037,329.577 263.5,334.5C 263.631,335.376 263.298,336.043 262.5,336.5C 261.422,334.539 260.089,332.872 258.5,331.5C 253.315,322.622 248.981,313.289 245.5,303.5C 246.791,303.737 247.791,303.404 248.5,302.5 Z"/></g>
<g><path style="opacity:0.969" fill="#523e1a" d="M 236.5,305.5 C 236.157,307.483 236.824,308.817 238.5,309.5C 238.34,311.153 237.674,312.486 236.5,313.5C 236.34,311.847 235.674,310.514 234.5,309.5C 234.66,307.847 235.326,306.514 236.5,305.5 Z"/></g>
<g><path style="opacity:0.922" fill="#3b2b13" d="M 201.5,306.5 C 203.387,308.789 204.721,311.455 205.5,314.5C 204.425,313.438 203.425,313.438 202.5,314.5C 203.246,315.736 203.579,317.07 203.5,318.5C 201.707,316.574 200.707,314.241 200.5,311.5C 201.117,311.611 201.617,311.944 202,312.5C 202.49,310.455 202.323,308.455 201.5,306.5 Z"/></g>
<g><path style="opacity:0.975" fill="#856933" d="M 234.5,309.5 C 235.674,310.514 236.34,311.847 236.5,313.5C 235.326,314.514 234.66,315.847 234.5,317.5C 233.5,318.833 232.5,320.167 231.5,321.5C 230.761,321.631 230.094,321.464 229.5,321C 232.316,317.679 233.982,313.845 234.5,309.5 Z"/></g>
<g><path style="opacity:0.075" fill="#170a00" d="M 287.5,309.5 C 287.008,311.819 286.008,313.819 284.5,315.5C 284.461,312.911 285.461,310.911 287.5,309.5 Z"/></g>
<g><path style="opacity:0.004" fill="#0d0400" d="M 236.5,313.5 C 236.771,315.38 236.104,316.713 234.5,317.5C 234.66,315.847 235.326,314.514 236.5,313.5 Z"/></g>
<g><path style="opacity:0.071" fill="#1e0d00" d="M 282.5,311.5 C 282.008,313.819 281.008,315.819 279.5,317.5C 279.461,314.911 280.461,312.911 282.5,311.5 Z"/></g>
<g><path style="opacity:0.651" fill="#34260e" d="M 254.5,314.5 C 255.492,316.456 256.492,318.456 257.5,320.5C 255.025,319.313 254.025,317.313 254.5,314.5 Z"/></g>
<g><path style="opacity:0.933" fill="#5e4a1f" d="M 205.5,314.5 C 207.293,316.426 208.293,318.759 208.5,321.5C 208.678,322.695 209.011,323.862 209.5,325C 209.164,326.03 208.497,326.53 207.5,326.5C 205.659,324.151 204.326,321.485 203.5,318.5C 203.579,317.07 203.246,315.736 202.5,314.5C 203.425,313.438 204.425,313.438 205.5,314.5 Z"/></g>
<g><path style="opacity:0.996" fill="#59441d" d="M 234.5,309.5 C 233.982,313.845 232.316,317.679 229.5,321C 230.094,321.464 230.761,321.631 231.5,321.5C 231.5,322.5 231.5,323.5 231.5,324.5C 228.193,332.291 224.693,339.958 221,347.5C 217.463,348.818 215.629,347.485 215.5,343.5C 215.157,341.517 215.824,340.183 217.5,339.5C 218.222,339.918 218.722,340.584 219,341.5C 221.084,337.054 223.25,332.721 225.5,328.5C 227.245,326.967 228.245,324.967 228.5,322.5C 229.74,317.762 231.74,313.429 234.5,309.5 Z"/></g>
<g><path style="opacity:0.063" fill="#241603" d="M 234.5,317.5 C 234.293,320.241 233.293,322.574 231.5,324.5C 231.5,323.5 231.5,322.5 231.5,321.5C 232.5,320.167 233.5,318.833 234.5,317.5 Z"/></g>
<g><path style="opacity:0.941" fill="#5b471c" d="M 287.5,308.5 C 287.5,308.833 287.5,309.167 287.5,309.5C 285.461,310.911 284.461,312.911 284.5,315.5C 282.661,320.511 280.328,325.178 277.5,329.5C 275.952,329.179 275.285,328.179 275.5,326.5C 276.452,323.303 277.785,320.303 279.5,317.5C 281.008,315.819 282.008,313.819 282.5,311.5C 284.451,309.52 285.951,307.187 287,304.5C 287.49,305.793 287.657,307.127 287.5,308.5 Z"/></g>
<g><path style="opacity:0.847" fill="#392c14" d="M 208.5,321.5 C 210.199,323.566 211.532,325.9 212.5,328.5C 211.176,327.15 210.176,327.317 209.5,329C 211.003,330.921 211.669,333.088 211.5,335.5C 209.408,332.912 208.075,329.912 207.5,326.5C 208.497,326.53 209.164,326.03 209.5,325C 209.011,323.862 208.678,322.695 208.5,321.5 Z"/></g>
<g><path style="opacity:0.176" fill="#201501" d="M 228.5,322.5 C 228.245,324.967 227.245,326.967 225.5,328.5C 225.755,326.033 226.755,324.033 228.5,322.5 Z"/></g>
<g><path style="opacity:0.949" fill="#694e23" d="M 212.5,328.5 C 213.441,330.05 214.107,331.716 214.5,333.5C 214.179,335.048 213.179,335.715 211.5,335.5C 211.669,333.088 211.003,330.921 209.5,329C 210.176,327.317 211.176,327.15 212.5,328.5 Z"/></g>
<g><path style="opacity:0.941" fill="#3f2e17" d="M 258.5,331.5 C 260.089,332.872 261.422,334.539 262.5,336.5C 263.298,336.043 263.631,335.376 263.5,334.5C 264.674,335.514 265.34,336.847 265.5,338.5C 264.577,337.697 263.577,337.53 262.5,338C 263.929,340.69 264.929,343.523 265.5,346.5C 262.721,341.717 260.388,336.717 258.5,331.5 Z"/></g>
<g><path style="opacity:0.937" fill="#4c3a19" d="M 275.5,326.5 C 275.285,328.179 275.952,329.179 277.5,329.5C 275.933,334.961 273.6,339.961 270.5,344.5C 271.323,342.545 271.49,340.545 271,338.5C 270.583,339.756 269.75,340.423 268.5,340.5C 270.094,335.333 272.427,330.666 275.5,326.5 Z"/></g>
<g><path style="opacity:0.714" fill="#453718" d="M 214.5,333.5 C 216.008,335.181 217.008,337.181 217.5,339.5C 215.824,340.183 215.157,341.517 215.5,343.5C 213.659,341.151 212.326,338.485 211.5,335.5C 213.179,335.715 214.179,335.048 214.5,333.5 Z"/></g>
<g><path style="opacity:0.769" fill="#644c20" d="M 265.5,338.5 C 266.222,339.551 267.222,340.218 268.5,340.5C 269.75,340.423 270.583,339.756 271,338.5C 271.49,340.545 271.323,342.545 270.5,344.5C 270.915,346.948 269.915,348.281 267.5,348.5C 266.287,348.253 265.62,347.586 265.5,346.5C 264.929,343.523 263.929,340.69 262.5,338C 263.577,337.53 264.577,337.697 265.5,338.5 Z"/></g>
</svg>
